<svg width="55" height="34" viewBox="0 0 55 34" fill="none" xmlns="http://www.w3.org/2000/svg">
<path d="M46.4526 14.8098C45.2546 6.46962 37.1753 0 27.4154 0C19.8597 0 13.2965 3.90115 10.3 10.0533C4.41114 11.6114 0 16.5254 0 21.8077C0 28.2458 5.72707 33.4748 12.9072 33.8528V33.9231H43.8372V33.9158L43.8646 33.9231C49.9124 33.9231 54.8308 29.5761 54.8308 24.2308C54.8275 22.0585 54.0004 19.95 52.4816 18.2421C50.9628 16.5343 48.84 15.3258 46.4526 14.8098ZM16.4492 16.9615H24.6738V9.69231H30.1569V16.9615H38.3815L27.4154 29.0769L16.4492 16.9615Z" fill="#5D5FEF"/>
</svg>
