<svg width="10" height="11" viewBox="0 0 10 11" fill="none" xmlns="http://www.w3.org/2000/svg">
<path fill-rule="evenodd" clip-rule="evenodd" d="M8.83466 1.65654C9.03349 1.65654 9.19902 1.82163 9.19902 2.03169V2.22591C9.19902 2.43087 9.03349 2.60106 8.83466 2.60106H0.363882C0.164552 2.60106 -0.000976562 2.43087 -0.000976562 2.22591V2.03169C-0.000976562 1.82163 0.164552 1.65654 0.363882 1.65654H1.85413C2.15686 1.65654 2.42031 1.44136 2.48841 1.13777L2.56645 0.789193C2.68774 0.314376 3.0869 -0.000976562 3.54372 -0.000976562H5.65433C6.10618 -0.000976562 6.50981 0.314376 6.62662 0.764149L6.71013 1.13726C6.77774 1.44136 7.04119 1.65654 7.34441 1.65654H8.83466ZM8.07706 8.75678C8.23264 7.30677 8.50504 3.86191 8.50504 3.82716C8.51499 3.72187 8.48069 3.62221 8.41259 3.54196C8.33951 3.46683 8.24706 3.42236 8.14516 3.42236H1.05577C0.953368 3.42236 0.85594 3.46683 0.788337 3.54196C0.719739 3.62221 0.685938 3.72187 0.690909 3.82716C0.691822 3.83355 0.701596 3.95489 0.717937 4.15775C0.790531 5.05896 0.99272 7.56902 1.12337 8.75678C1.21583 9.63179 1.78996 10.1817 2.62158 10.2017C3.26331 10.2165 3.92443 10.2216 4.60046 10.2216C5.23722 10.2216 5.88393 10.2165 6.54555 10.2017C7.40599 10.1869 7.97963 9.64661 8.07706 8.75678Z" fill="#FF0000"/>
</svg>
